<svg width="550" height="550" viewBox="0 0 550 550" fill="none" xmlns="http://www.w3.org/2000/svg">
<circle cx="275.112" cy="275.112" r="256" fill="#F3F3F3"/>
<g clip-path="url(#clip0_1_38)">
<path d="M381.742 404.048L442.5 281.769C445.158 276.405 446.359 270.437 445.982 264.462C445.606 258.488 443.664 252.718 440.354 247.731L363.738 133.428C360.423 128.436 355.854 124.404 350.488 121.738C345.121 119.071 339.148 117.865 333.168 118.239L195.794 126.216C189.819 126.589 184.048 128.527 179.059 131.836C174.07 135.144 170.039 139.706 167.37 145.064L106.613 267.344C103.954 272.707 102.753 278.676 103.13 284.65C103.507 290.624 105.448 296.394 108.759 301.382L185.375 415.684C188.689 420.677 193.259 424.708 198.625 427.375C203.991 430.041 209.964 431.248 215.945 430.874L353.318 422.897C359.293 422.523 365.064 420.585 370.053 417.277C375.042 413.969 379.073 409.407 381.742 404.048Z" stroke="#1E1E1E" stroke-width="38.84" stroke-linecap="round" stroke-linejoin="round"/>
</g>
<path d="M430.795 336.575L425.286 200.144C425.039 194.163 423.222 188.352 420.02 183.294C416.818 178.237 412.342 174.111 407.041 171.329L284.909 107.934C279.603 105.149 273.658 103.811 267.671 104.053C261.684 104.294 255.866 106.108 250.801 109.311L134.178 182.347C129.119 185.546 124.99 190.02 122.206 195.319C119.422 200.619 118.08 206.557 118.316 212.538L123.825 348.97C124.072 354.951 125.888 360.761 129.091 365.819C132.293 370.876 136.769 375.003 142.07 377.784L264.201 441.18C269.507 443.964 275.453 445.303 281.44 445.061C287.427 444.819 293.245 443.006 298.309 439.803L414.932 366.767C419.992 363.567 424.12 359.093 426.904 353.794C429.689 348.495 431.03 342.557 430.795 336.575Z" stroke="#1E1E1E" stroke-width="38.84" stroke-linecap="round" stroke-linejoin="round"/>
<defs>
<clipPath id="clip0_1_38">
<rect width="409.627" height="409.627" fill="white" transform="translate(182.273) rotate(26.4215)"/>
</clipPath>
</defs>
</svg>
